<mxfile host="app.diagrams.net" modified="2023-03-04T15:43:50.362Z" agent="5.0 (Windows)" etag="K_WqR0jofKD94vbHGEF0" version="21.0.2" type="github">
  <diagram id="R2lEEEUBdFMjLlhIrx00" name="Page-1">
    <mxGraphModel dx="1050" dy="1638" grid="1" gridSize="10" guides="1" tooltips="1" connect="1" arrows="1" fold="1" page="1" pageScale="1" pageWidth="850" pageHeight="1100" math="0" shadow="0" extFonts="Permanent Marker^https://fonts.googleapis.com/css?family=Permanent+Marker">
      <root>
        <mxCell id="0" />
        <mxCell id="1" parent="0" />
        <mxCell id="TxW6Z05cxE0RpUP17R9r-19" style="edgeStyle=orthogonalEdgeStyle;rounded=0;orthogonalLoop=1;jettySize=auto;html=1;entryX=0.5;entryY=1;entryDx=0;entryDy=0;startArrow=none;startFill=0;endArrow=none;endFill=0;" edge="1" parent="1" source="AEL3wiGqTeLXxNAOrP59-1" target="TxW6Z05cxE0RpUP17R9r-16">
          <mxGeometry relative="1" as="geometry" />
        </mxCell>
        <mxCell id="TxW6Z05cxE0RpUP17R9r-22" style="edgeStyle=orthogonalEdgeStyle;rounded=0;orthogonalLoop=1;jettySize=auto;html=1;entryX=0.5;entryY=0;entryDx=0;entryDy=0;endArrow=none;endFill=0;" edge="1" parent="1" source="AEL3wiGqTeLXxNAOrP59-1" target="TxW6Z05cxE0RpUP17R9r-17">
          <mxGeometry relative="1" as="geometry" />
        </mxCell>
        <mxCell id="AEL3wiGqTeLXxNAOrP59-1" value="Person" style="whiteSpace=wrap;html=1;align=center;" parent="1" vertex="1">
          <mxGeometry x="200" y="120" width="100" height="40" as="geometry" />
        </mxCell>
        <mxCell id="TxW6Z05cxE0RpUP17R9r-29" style="edgeStyle=orthogonalEdgeStyle;rounded=0;orthogonalLoop=1;jettySize=auto;html=1;exitX=0.5;exitY=0;exitDx=0;exitDy=0;entryX=0.5;entryY=1;entryDx=0;entryDy=0;endArrow=none;endFill=0;" edge="1" parent="1" source="TxW6Z05cxE0RpUP17R9r-1" target="TxW6Z05cxE0RpUP17R9r-9">
          <mxGeometry relative="1" as="geometry" />
        </mxCell>
        <mxCell id="TxW6Z05cxE0RpUP17R9r-1" value="&lt;div&gt;Adresse&lt;/div&gt;" style="whiteSpace=wrap;html=1;align=center;" vertex="1" parent="1">
          <mxGeometry x="200" y="-90" width="100" height="40" as="geometry" />
        </mxCell>
        <mxCell id="TxW6Z05cxE0RpUP17R9r-28" style="edgeStyle=orthogonalEdgeStyle;rounded=0;orthogonalLoop=1;jettySize=auto;html=1;exitX=0.5;exitY=1;exitDx=0;exitDy=0;entryX=0.5;entryY=0;entryDx=0;entryDy=0;endArrow=none;endFill=0;" edge="1" parent="1" source="TxW6Z05cxE0RpUP17R9r-2" target="TxW6Z05cxE0RpUP17R9r-12">
          <mxGeometry relative="1" as="geometry" />
        </mxCell>
        <mxCell id="TxW6Z05cxE0RpUP17R9r-2" value="Telefon" style="whiteSpace=wrap;html=1;align=center;" vertex="1" parent="1">
          <mxGeometry x="200" y="310" width="100" height="40" as="geometry" />
        </mxCell>
        <mxCell id="TxW6Z05cxE0RpUP17R9r-24" style="edgeStyle=orthogonalEdgeStyle;rounded=0;orthogonalLoop=1;jettySize=auto;html=1;entryX=0;entryY=0.5;entryDx=0;entryDy=0;endArrow=none;endFill=0;" edge="1" parent="1" source="TxW6Z05cxE0RpUP17R9r-3" target="AEL3wiGqTeLXxNAOrP59-1">
          <mxGeometry relative="1" as="geometry" />
        </mxCell>
        <mxCell id="TxW6Z05cxE0RpUP17R9r-3" value="Personalausweisnummer" style="ellipse;whiteSpace=wrap;html=1;align=center;" vertex="1" parent="1">
          <mxGeometry width="160" height="60" as="geometry" />
        </mxCell>
        <mxCell id="TxW6Z05cxE0RpUP17R9r-25" style="edgeStyle=orthogonalEdgeStyle;rounded=0;orthogonalLoop=1;jettySize=auto;html=1;exitX=1;exitY=0.5;exitDx=0;exitDy=0;endArrow=none;endFill=0;" edge="1" parent="1" source="TxW6Z05cxE0RpUP17R9r-5">
          <mxGeometry relative="1" as="geometry">
            <mxPoint x="180" y="140" as="targetPoint" />
          </mxGeometry>
        </mxCell>
        <mxCell id="TxW6Z05cxE0RpUP17R9r-5" value="Vorname" style="ellipse;whiteSpace=wrap;html=1;align=center;" vertex="1" parent="1">
          <mxGeometry y="70" width="160" height="60" as="geometry" />
        </mxCell>
        <mxCell id="TxW6Z05cxE0RpUP17R9r-27" style="edgeStyle=orthogonalEdgeStyle;rounded=0;orthogonalLoop=1;jettySize=auto;html=1;exitX=1;exitY=0.5;exitDx=0;exitDy=0;endArrow=none;endFill=0;" edge="1" parent="1" source="TxW6Z05cxE0RpUP17R9r-6">
          <mxGeometry relative="1" as="geometry">
            <mxPoint x="190" y="140" as="targetPoint" />
          </mxGeometry>
        </mxCell>
        <mxCell id="TxW6Z05cxE0RpUP17R9r-6" value="Nachname" style="ellipse;whiteSpace=wrap;html=1;align=center;" vertex="1" parent="1">
          <mxGeometry y="140" width="160" height="60" as="geometry" />
        </mxCell>
        <mxCell id="TxW6Z05cxE0RpUP17R9r-30" style="edgeStyle=orthogonalEdgeStyle;rounded=0;orthogonalLoop=1;jettySize=auto;html=1;exitX=0.5;exitY=1;exitDx=0;exitDy=0;entryX=0.5;entryY=0;entryDx=0;entryDy=0;endArrow=none;endFill=0;" edge="1" parent="1" source="TxW6Z05cxE0RpUP17R9r-8" target="TxW6Z05cxE0RpUP17R9r-1">
          <mxGeometry relative="1" as="geometry">
            <Array as="points">
              <mxPoint x="70" y="-110" />
              <mxPoint x="250" y="-110" />
            </Array>
          </mxGeometry>
        </mxCell>
        <mxCell id="TxW6Z05cxE0RpUP17R9r-8" value="StraÃŸe + Hausnummer" style="ellipse;whiteSpace=wrap;html=1;align=center;" vertex="1" parent="1">
          <mxGeometry y="-180" width="160" height="60" as="geometry" />
        </mxCell>
        <mxCell id="TxW6Z05cxE0RpUP17R9r-9" value="Postleitzahl" style="ellipse;whiteSpace=wrap;html=1;align=center;" vertex="1" parent="1">
          <mxGeometry x="170" y="-180" width="160" height="60" as="geometry" />
        </mxCell>
        <mxCell id="TxW6Z05cxE0RpUP17R9r-31" style="edgeStyle=orthogonalEdgeStyle;rounded=0;orthogonalLoop=1;jettySize=auto;html=1;exitX=0.5;exitY=1;exitDx=0;exitDy=0;endArrow=none;endFill=0;" edge="1" parent="1" source="TxW6Z05cxE0RpUP17R9r-10">
          <mxGeometry relative="1" as="geometry">
            <mxPoint x="250" y="-90" as="targetPoint" />
            <Array as="points">
              <mxPoint x="425" y="-110" />
              <mxPoint x="250" y="-110" />
            </Array>
          </mxGeometry>
        </mxCell>
        <mxCell id="TxW6Z05cxE0RpUP17R9r-10" value="Ort" style="ellipse;whiteSpace=wrap;html=1;align=center;" vertex="1" parent="1">
          <mxGeometry x="345" y="-180" width="160" height="60" as="geometry" />
        </mxCell>
        <mxCell id="TxW6Z05cxE0RpUP17R9r-26" style="edgeStyle=orthogonalEdgeStyle;rounded=0;orthogonalLoop=1;jettySize=auto;html=1;exitX=1;exitY=0.5;exitDx=0;exitDy=0;endArrow=none;endFill=0;" edge="1" parent="1" source="TxW6Z05cxE0RpUP17R9r-11">
          <mxGeometry relative="1" as="geometry">
            <mxPoint x="180" y="130" as="targetPoint" />
          </mxGeometry>
        </mxCell>
        <mxCell id="TxW6Z05cxE0RpUP17R9r-11" value="Geburtsdatum" style="ellipse;whiteSpace=wrap;html=1;align=center;" vertex="1" parent="1">
          <mxGeometry y="210" width="160" height="60" as="geometry" />
        </mxCell>
        <mxCell id="TxW6Z05cxE0RpUP17R9r-12" value="Telefonnummer" style="ellipse;whiteSpace=wrap;html=1;align=center;" vertex="1" parent="1">
          <mxGeometry x="170" y="360" width="160" height="60" as="geometry" />
        </mxCell>
        <mxCell id="TxW6Z05cxE0RpUP17R9r-13" value="Mitarbeiter" style="whiteSpace=wrap;html=1;align=center;" vertex="1" parent="1">
          <mxGeometry x="470" y="60" width="100" height="40" as="geometry" />
        </mxCell>
        <mxCell id="TxW6Z05cxE0RpUP17R9r-14" value="&lt;div&gt;Student&lt;/div&gt;" style="whiteSpace=wrap;html=1;align=center;" vertex="1" parent="1">
          <mxGeometry x="470" y="200" width="100" height="40" as="geometry" />
        </mxCell>
        <mxCell id="TxW6Z05cxE0RpUP17R9r-15" value="Professor" style="whiteSpace=wrap;html=1;align=center;" vertex="1" parent="1">
          <mxGeometry x="680" y="70" width="100" height="40" as="geometry" />
        </mxCell>
        <mxCell id="TxW6Z05cxE0RpUP17R9r-21" style="edgeStyle=orthogonalEdgeStyle;rounded=0;orthogonalLoop=1;jettySize=auto;html=1;entryX=0.5;entryY=1;entryDx=0;entryDy=0;endArrow=none;endFill=0;" edge="1" parent="1" source="TxW6Z05cxE0RpUP17R9r-16" target="TxW6Z05cxE0RpUP17R9r-1">
          <mxGeometry relative="1" as="geometry" />
        </mxCell>
        <mxCell id="TxW6Z05cxE0RpUP17R9r-16" value="hat" style="shape=rhombus;perimeter=rhombusPerimeter;whiteSpace=wrap;html=1;align=center;" vertex="1" parent="1">
          <mxGeometry x="210" width="80" height="60" as="geometry" />
        </mxCell>
        <mxCell id="TxW6Z05cxE0RpUP17R9r-23" style="edgeStyle=orthogonalEdgeStyle;rounded=0;orthogonalLoop=1;jettySize=auto;html=1;entryX=0.5;entryY=0;entryDx=0;entryDy=0;endArrow=none;endFill=0;" edge="1" parent="1" source="TxW6Z05cxE0RpUP17R9r-17" target="TxW6Z05cxE0RpUP17R9r-2">
          <mxGeometry relative="1" as="geometry" />
        </mxCell>
        <mxCell id="TxW6Z05cxE0RpUP17R9r-17" value="hat" style="shape=rhombus;perimeter=rhombusPerimeter;whiteSpace=wrap;html=1;align=center;" vertex="1" parent="1">
          <mxGeometry x="210" y="200" width="80" height="60" as="geometry" />
        </mxCell>
      </root>
    </mxGraphModel>
  </diagram>
</mxfile>
